<svg xmlns="http://www.w3.org/2000/svg" width="64" height="64" viewBox="0 0 160 160" fill="none">
  <defs>
    <linearGradient id="playwright-bg-64" x1="20" y1="18" x2="146" y2="148" gradientUnits="userSpaceOnUse">
      <stop stop-color="#0E172A"/>
      <stop offset="1" stop-color="#09101D"/>
    </linearGradient>
    <radialGradient id="playwright-glow-64" cx="0" cy="0" r="1" gradientUnits="userSpaceOnUse" gradientTransform="translate(112 34) rotate(128) scale(134 122)">
      <stop stop-color="#EF4444" stop-opacity="0.28"/>
      <stop offset="1" stop-color="#EF4444" stop-opacity="0"/>
    </radialGradient>
  </defs>
  <rect x="8" y="8" width="144" height="144" rx="34" fill="#040A14"/>
  <rect x="10" y="10" width="140" height="140" rx="32" fill="url(#playwright-bg-64)"/>
  <rect x="10" y="10" width="140" height="140" rx="32" fill="url(#playwright-glow-64)"/>
  <rect x="10" y="10" width="140" height="140" rx="32" stroke="#E2E8F0" stroke-opacity="0.08" stroke-width="2"/>
  <path d="M18 118C40 106 60 102 82 106C104 110 121 104 142 88V128C123 141 99 146 78 144C55 142 37 146 18 150V118Z" fill="#EF4444" fill-opacity="0.12"/>
  <circle cx="80" cy="88" r="46" fill="#07111F"/>
  <circle cx="80" cy="88" r="46" fill="#EF4444" fill-opacity="0.06"/>
  <circle cx="80" cy="88" r="46" stroke="#E2E8F0" stroke-opacity="0.1" stroke-width="2"/>
  <rect x="20" y="20" width="32" height="32" rx="12" fill="#EF4444" fill-opacity="0.18" stroke="#EF4444" stroke-opacity="0.55" stroke-width="2"/>
  <circle cx="36" cy="36" r="10.5" fill="#EF4444"/>
  
        <path d="M36 25L45 29V36.5C45 42.5 40.6 46.1 36 47.5C31.4 46.1 27 42.5 27 36.5V29L36 25Z" fill="none" stroke="#F8FAFC" stroke-width="3.5" stroke-linejoin="round"/>
        <path d="M31.5 36L34.5 39L40.8 32.7" fill="none" stroke="#F8FAFC" stroke-width="3.5" stroke-linecap="round" stroke-linejoin="round"/>
      
  <circle cx="122" cy="31" r="2.6" fill="#F8FAFC" fill-opacity="0.92"/>
  <circle cx="130" cy="25" r="1.9" fill="#F8FAFC" fill-opacity="0.72"/>
  <circle cx="131" cy="35" r="1.7" fill="#F8FAFC" fill-opacity="0.58"/>
  <circle cx="139" cy="30" r="2.2" fill="#F8FAFC" fill-opacity="0.72"/>
  
        <rect x="48" y="58" width="64" height="48" rx="10" fill="#0B1424" stroke="#F8FAFC" stroke-opacity="0.18" stroke-width="3"/>
        <path d="M48 70H112" stroke="#FCA5A5" stroke-opacity="0.35" stroke-width="3"/>
        <circle cx="56" cy="64" r="3" fill="#FCA5A5"/>
        <circle cx="64" cy="64" r="3" fill="#FDE68A"/>
        <polygon points="74,80 74,102 95,91" fill="#F8FAFC"/>
        <path d="M86 109L92 115L104 98" fill="none" stroke="#34D399" stroke-width="5" stroke-linecap="round" stroke-linejoin="round"/>
        <path d="M55 118H77" stroke="#FCA5A5" stroke-width="4" stroke-linecap="round"/>
        <path d="M57 84L62 89L57 94" fill="none" stroke="#FCA5A5" stroke-width="4" stroke-linecap="round" stroke-linejoin="round"/>
      
</svg>
